<svg width="23.999999999999996" height="23.999999999999996" xmlns="http://www.w3.org/2000/svg">

 <g>
  <title>background</title>
  <rect fill="none" id="canvas_background" height="402" width="582" y="-1" x="-1"/>
 </g>
 <g>
  <title>Layer 1</title>
  <path fill="#e35d5d" id="svg_1" d="m17.414,6.586c-0.78,-0.781 -2.048,-0.781 -2.828,0l-2.586,2.586l-2.586,-2.586c-0.78,-0.781 -2.048,-0.781 -2.828,0c-0.781,0.781 -0.781,2.047 0,2.828l2.585,2.586l-2.585,2.586c-0.781,0.781 -0.781,2.047 0,2.828c0.39,0.391 0.902,0.586 1.414,0.586s1.024,-0.195 1.414,-0.586l2.586,-2.586l2.586,2.586c0.39,0.391 0.902,0.586 1.414,0.586s1.024,-0.195 1.414,-0.586c0.781,-0.781 0.781,-2.047 0,-2.828l-2.585,-2.586l2.585,-2.586c0.781,-0.781 0.781,-2.047 0,-2.828z"/>
 </g>
</svg>